<svg id="图层_1" data-name="图层 1" xmlns="http://www.w3.org/2000/svg" viewBox="0 0 380 83.98" style=""><defs><style>.cls-1{font-size:77.08px;fill:#e8aeaf;font-family:CooperBlack, Cooper Black;}.cls-2,.cls-3,.cls-4{fill:none;stroke-linecap:round;stroke-linejoin:round;stroke-width:0.85px;}.cls-2{stroke:#e8aeaf;}.cls-3{stroke:#f39800;}.cls-4{stroke:#f7f8f8;}</style></defs><title>name</title><text class="cls-1" transform="translate(0 64.64)">Hana Guo</text><path class="cls-2 jjgaVVfC_0" d="M163.81,409.1s1.79-2.09,1.93-1.94c1.08,1.08.87,9.19,2,10.36l11.88-11.89c1.05,1.05-17.29,29.75-17.29,29.75l27.19-27.19L168,441.91c4.28,4.28,17.39-17.39,17.39-17.39s-26.9,25.55-20.29,32.16c5.44,5.44,13.65-26.4,20-20,5.42,5.42-10,21.76-10,21.76,1.07,1.07,10.58-10.62,10.6-10.6" transform="translate(-130 -393.07)"></path><path class="cls-2 jjgaVVfC_1" d="M132,410.05c.08.08,1.49-2.12,1.8-1.81,2.43,2.43,1.23,7.63,2.85,9.25.13.13,9.35-14.5,11.92-11.92l-11.6,23.95s17.15-25.78,21.47-21.47c0,0-26.23,28.94-21.62,33.54.38.39,16.23-18.89,17.56-17.57,0,0-28.6,24.66-20.48,32.78,6.64,6.64,30.38-30.38,30.38-30.38,7.24,7.24-19.52,32-19.52,32,.92.92,10.32-10.32,10.32-10.32" transform="translate(-130 -393.07)"></path><path class="cls-2 jjgaVVfC_2" d="M80.65,49.19L97.64,32.2"></path><path class="cls-2 jjgaVVfC_3" d="M194.52,443.21s2.69-3.13,2.91-2.91c1.5,1.5-3.76,12.9-2.13,14.53l30.9-30.91c1.26,1.26-22.2,34.66-22.2,34.66l8.14-8.14,5.9,6.3c3,3,12.22-12.23,12.22-12.23s-2,9.72,0,11.77c.78.78,2-3.82,2.89-2.9" transform="translate(-130 -393.07)"></path><path class="cls-2 jjgaVVfC_4" d="M196.15,427.75c.14.14,2.48-3.51,3-3,2.34,2.33,1.91,7.07,3.47,8.63.14.14,10.25-15.91,13.08-13.08l-1.6,14s8.85-13.32,11.08-11.09" transform="translate(-130 -393.07)"></path><path class="cls-2 jjgaVVfC_5" d="M259.61,431.87s10.44-12.16,11.3-11.3c1.79,1.79-6.49,15-4.54,16.94l13.16-13.16c.91.9-13.92,26.37-13.92,26.37l16.91-16.91-12.34,24.53c3.15,3.16,12.82-12.82,12.82-12.82s-2.35,10-.24,12.1c1,1,2.49-4.81,3.65-3.65" transform="translate(-130 -393.07)"></path><path class="cls-2 jjgaVVfC_6" d="M236.53,427.33c.09.09,1.47-2.08,1.78-1.77,2.53,2.54.53,8.17,2.23,9.86.16.16,11.57-17.94,14.76-14.75l-15.25,27.59s22-33.08,27.55-27.54c0,0-30.68,32.16-25.47,37.37.34.34,14-16.3,15.16-15.15,0,0-5.91,11.8-2.71,15,1.09,1.09,5-5,5-5" transform="translate(-130 -393.07)"></path><path class="cls-2 jjgaVVfC_7" d="M176.05,49.19L193.05,32.2"></path><path class="cls-2 jjgaVVfC_8" d="M289.92,443.21s2.7-3.13,2.92-2.91c1.5,1.5-3.76,12.9-2.13,14.53l30.9-30.91c1.25,1.26-22.2,34.66-22.2,34.66l8.14-8.14,5.89,6.3c3,3,12.23-12.23,12.23-12.23s-2,9.72,0,11.77c.79.78,2-3.83,2.9-2.9" transform="translate(-130 -393.07)"></path><path class="cls-2 jjgaVVfC_9" d="M291.56,427.75c.14.14,2.47-3.51,3-3,2.33,2.33,1.9,7.07,3.46,8.63.14.14,10.26-15.91,13.08-13.08l-1.6,14s8.86-13.32,11.09-11.09" transform="translate(-130 -393.07)"></path><path class="cls-2 jjgaVVfC_10" d="M381.71,434.92l1.82-1.82s4.14,7.55,4.64,8c2.71,2.71,7.17-13.14,10.16-10.16" transform="translate(-130 -393.07)"></path><path class="cls-2 jjgaVVfC_11" d="M376.14,415.94s9.32-10.85,10.09-10.09c1.1,1.11.51,9.49,1.71,10.69l10.17-10.18c.52.52-4,16.49-4,16.49l9.63-9.63" transform="translate(-130 -393.07)"></path><path class="cls-2 jjgaVVfC_12" d="M357.57,415.89c.21.21,3.58-5.06,4.32-4.32,6,6-13.75,17.84-9.74,21.85.3.3,22-34.16,28.08-28.09l-25.52,37.88S367.69,423.7,371,427c0,0-14.34,20.28-11.35,23.26.28.29,12-14,13-13,0,0-9.76,14.09-5.78,18.07,2.29,2.29,10.47-10.47,10.47-10.47,2.61,2.61-1,13.47-1,13.47,2.41,2.4,26.88-26.88,26.88-26.88l-14.71,26.28c5.6,5.6,20.41-23.52,22-22" transform="translate(-130 -393.07)"></path><path class="cls-2 jjgaVVfC_13" d="M437.89,424.51s1.4-1.62,1.52-1.51c1,1,1.5,8.65,2.62,9.78l12.22-12.23c.85.85-12.42,24.88-12.42,24.88l17-17" transform="translate(-130 -393.07)"></path><path class="cls-2 jjgaVVfC_14" d="M412.39,424.67c.08.07,1.33-1.88,1.6-1.6,2.42,2.42,1.28,7.58,2.9,9.2.12.12,9.14-14.18,11.66-11.66l-11.4,23.75s13-19.5,16.23-16.23c0,0-17.33,22.47-13.94,25.86.31.31,12.89-15,13.94-13.95,0,0-9.93,14.19-5.91,18.21,2,2,9.1-9.1,9.1-9.1,1.71,1.71,5.82,6.66,5.82,6.66,1.47,1.47,16.4-16.39,16.4-16.39l-6.92,18.48c2.2,2.2,8-9.24,8.63-8.63" transform="translate(-130 -393.07)"></path><path class="cls-2 jjgaVVfC_15" d="M483.94,429.11s7.83-9.12,8.47-8.48c1.51,1.51-3.88,13-2.24,14.64l10.9-10.9c.72.73-9.45,21.91-9.45,21.91l15.06-15.06" transform="translate(-130 -393.07)"></path><path class="cls-2 jjgaVVfC_16" d="M468.46,429.55c.2.21,3.51-5,4.24-4.23,5.21,5.21-10.82,15.95-7.34,19.43.26.26,19.14-29.68,24.41-24.41L469.66,452.8s10.3-15.47,12.89-12.88c0,0-7.73,15.4-5.61,17.52.2.2,8.24-9.59,8.91-8.92,0,0,.28,7.75,2.42,9.88,4.43,4.43,20.28-20.28,20.28-20.28" transform="translate(-130 -393.07)"></path><path class="cls-2 jjgaVVfC_17" d="M163.81,409.1c.46.46,1.45-2.43,1.93-1.94,2.11,2.1,1.7,9.78,2,10.07l11.6-11.6c6,6-17.55,29.76-17.55,29.76s19.27-35.76,27.52-27.52c0,0-22.14,32.37-21.24,33.28l17.38-17.38-20.73,32.66s20.41-20.49,20.45-20.45c2.41,2.41-10.67,22.42-10.67,22.42,1.64,1.63,11.16-11.16,11.16-11.16s.24,7.3,2.28,9.33c.2.2,1.45-2.15,1.8-1.8" transform="translate(-130 -393.07)"></path><path class="cls-2 jjgaVVfC_18" d="M132,410.05c.58.58,1.18-2.43,1.8-1.81,0,0,2,8.15,2.81,8.95,0,0,11.26-12,11.63-11.63,3.32,3.31-11.4,23.27-11.28,23.39,1.69,1.69,18.78-23.65,21.22-21.22,9.72,9.72-29,25.36-21.33,33.09,0,0,15-19.92,17.48-17.48,0,0-21.76,32.39-20.89,33.25,10,10,26.88-33.43,30.16-30.15,2.39,2.39-19.53,32-19.53,32,1.47,1.47,7.3-14.28,10.79-10.79" transform="translate(-130 -393.07)"></path><path class="cls-2 jjgaVVfC_19" d="M210.65,442.26c2.59,2.59,14.39-19.59,17-17" transform="translate(-130 -393.07)"></path><path class="cls-2 jjgaVVfC_20" d="M194.52,443.21c.69.7,2.19-3.64,2.91-2.91,3,3-2.68,13.92-2.27,14.33L226,423.76c7.15,7.16-22.56,34.78-22.56,34.78s5.54-10.29,7.91-7.92l6.27,5.77,12.54-12.54-1.52,13.44S234,452,234,452" transform="translate(-130 -393.07)"></path><path class="cls-2 jjgaVVfC_21" d="M196.15,427.75c1,1,2-4,3-3,0,0,2,8.18,2.78,9,0,0,13-13.88,13.45-13.45,1.72,1.72-1.35,13.34-1.29,13.4.85.86,9.5-12,10.73-10.73" transform="translate(-130 -393.07)"></path><path class="cls-2 jjgaVVfC_22" d="M259.61,431.87c2.69,2.69,8.48-14.13,11.3-11.3,3.54,3.53-5.08,16.16-4.59,16.65l13-13c5,5-13.53,25.74-13.53,25.74s11.66-21.63,16.64-16.64c0,0-13.63,24.37-13,25L283,444.82l-1.09,13s4.44-4.46,4.45-4.45" transform="translate(-130 -393.07)"></path><path class="cls-2 jjgaVVfC_23" d="M236.53,427.33c.58.57,1.16-2.39,1.78-1.77,0,0,1.38,8.7,2.22,9.53,0,0,14-14.94,14.48-14.48,3.94,3.93-15,26.86-14.89,27,2.13,2.13,23.72-29.88,26.8-26.8C278,431.94,232.65,449.17,241.49,458c0,0,13.59-18,15.8-15.8,0,0-3.85,15.49-3.49,15.85,1.84,1.85,4.95-6.16,5.55-5.55" transform="translate(-130 -393.07)"></path><path class="cls-2 jjgaVVfC_24" d="M306.05,442.26c2.6,2.59,14.4-19.59,17-17" transform="translate(-130 -393.07)"></path><path class="cls-2 jjgaVVfC_25" d="M289.92,443.21c.7.7,2.19-3.64,2.92-2.91,3,3-2.68,13.92-2.27,14.33l30.86-30.87c7.15,7.16-22.56,34.78-22.56,34.78s5.54-10.29,7.91-7.92c0,0,6.08,5.58,6.27,5.77l12.55-12.54-1.52,13.44s5.29-5.31,5.3-5.3" transform="translate(-130 -393.07)"></path><path class="cls-2 jjgaVVfC_26" d="M291.56,427.75c1,1,1.95-4,3-3,0,0,2,8.18,2.77,9,0,0,13-13.88,13.46-13.45,1.71,1.72-1.36,13.34-1.29,13.4.85.86,9.5-12,10.73-10.73" transform="translate(-130 -393.07)"></path><path class="cls-2 jjgaVVfC_27" d="M381.71,434.92c.28.27,1.54-2.1,1.82-1.82.5.51,4.5,7.86,4.5,7.86,2.06,2.06,8.87-11.08,10-10" transform="translate(-130 -393.07)"></path><path class="cls-2 jjgaVVfC_28" d="M376.14,415.94c2.4,2.4,7.57-12.61,10.09-10.09,2.18,2.18,1.2,10.25,1.51,10.55l10.09-10.09c2.89,2.89-4.05,16.26-4.05,16.26s6.85-12.7,9.78-9.78" transform="translate(-130 -393.07)"></path><path class="cls-2 jjgaVVfC_29" d="M357.57,415.89c1.4,1.4,2.82-5.81,4.32-4.32,0,0-11.78,19.52-9.77,21.53,0,0,26.87-28.64,27.76-27.75,5.76,5.76-25.56,37.24-25.34,37.45,1.3,1.31,14.56-18.34,16.45-16.45,6.48,6.48-16.88,18.34-11.73,23.49,0,0,11.27-14.93,13.1-13.1,0,0-6.46,18-6,18.39,3.52,3.52,9.45-11.76,10.6-10.61.88.88-1.26,13.71-1.26,13.71,1.43,1.43,7.11-13.93,10.52-10.52L388,457.85l22.34-22.34" transform="translate(-130 -393.07)"></path><path class="cls-2 jjgaVVfC_30" d="M437.89,424.51c.36.36,1.14-1.89,1.52-1.51,2,2,2.32,9.18,2.6,9.46l11.89-11.89c4.65,4.65-12,24.18-12,24.18s11.85-22,16.92-16.91" transform="translate(-130 -393.07)"></path><path class="cls-2 jjgaVVfC_31" d="M412.39,424.67c.52.52,1.05-2.16,1.6-1.6,0,0,2.06,8.1,2.86,8.9,0,0,11-11.71,11.34-11.34,3.28,3.27-11.19,23.06-11.07,23.18,1.3,1.29,14.39-18.13,16.26-16.26,7.3,7.3-20,20.15-14.2,26,0,0,12.22-16.18,14.2-14.2,0,0-7,18.45-6.53,18.89,3.06,3.06,8.2-10.2,9.2-9.2l6.23,6.22c2.24,2.24,11.16-21.86,16.51-16.51L451.5,458l8.81-8.8" transform="translate(-130 -393.07)"></path><path class="cls-2 jjgaVVfC_32" d="M483.94,429.11c2,2,6.35-10.6,8.47-8.48,3,3-2.72,14-2.31,14.37l10.78-10.78c4,4-9.19,21.41-9.19,21.41s10.37-19.25,14.81-14.81" transform="translate(-130 -393.07)"></path><path class="cls-2 jjgaVVfC_33" d="M468.46,429.55c1.37,1.38,2.77-5.71,4.24-4.23,0,0-9.17,17.42-7.42,19.17,0,0,23.4-24.95,24.17-24.17,4.84,4.84-20.24,32-20.06,32.18,1,1,11.55-14.55,13-13.05,4.64,4.64-9.7,14.1-6,17.78,0,0,7.78-10.29,9-9,0,0,1.87,10,2.1,10.26,7,7,18.68-23.23,20.95-21" transform="translate(-130 -393.07)"></path><path class="cls-3 jjgaVVfC_34" d="M163.81,409.1c.46.46,1.45-2.43,1.93-1.94,2.11,2.1,1.7,9.78,2,10.07l11.6-11.6c6,6-17.55,29.76-17.55,29.76s19.27-35.76,27.52-27.52c0,0-22.14,32.37-21.24,33.28l17.38-17.38-20.73,32.66s20.41-20.49,20.45-20.45c2.41,2.41-10.67,22.42-10.67,22.42,1.64,1.63,11.16-11.16,11.16-11.16s.24,7.3,2.28,9.33c.2.2,1.45-2.15,1.8-1.8" transform="translate(-130 -393.07)"></path><path class="cls-3 jjgaVVfC_35" d="M132,410.05c.58.58,1.18-2.43,1.8-1.81,0,0,2,8.15,2.81,8.95,0,0,11.26-12,11.63-11.63,3.32,3.31-11.4,23.27-11.28,23.39,1.69,1.69,18.78-23.65,21.22-21.22,9.72,9.72-29,25.36-21.33,33.09,0,0,15-19.92,17.48-17.48,0,0-21.76,32.39-20.89,33.25,10,10,26.88-33.43,30.16-30.15,2.39,2.39-19.53,32-19.53,32,1.47,1.47,7.3-14.28,10.79-10.79" transform="translate(-130 -393.07)"></path><path class="cls-3 jjgaVVfC_36" d="M210.65,442.26c2.59,2.59,14.39-19.59,17-17" transform="translate(-130 -393.07)"></path><path class="cls-3 jjgaVVfC_37" d="M194.52,443.21c.69.7,2.19-3.64,2.91-2.91,3,3-2.68,13.92-2.27,14.33L226,423.76c7.15,7.16-22.56,34.78-22.56,34.78s5.54-10.29,7.91-7.92l6.27,5.77,12.54-12.54-1.52,13.44S234,452,234,452" transform="translate(-130 -393.07)"></path><path class="cls-3 jjgaVVfC_38" d="M196.15,427.75c1,1,2-4,3-3,0,0,2,8.18,2.78,9,0,0,13-13.88,13.45-13.45,1.72,1.72-1.35,13.34-1.29,13.4.85.86,9.5-12,10.73-10.73" transform="translate(-130 -393.07)"></path><path class="cls-3 jjgaVVfC_39" d="M259.61,431.87c2.69,2.69,8.48-14.13,11.3-11.3,3.54,3.53-5.08,16.16-4.59,16.65l13-13c5,5-13.53,25.74-13.53,25.74s11.66-21.63,16.64-16.64c0,0-13.63,24.37-13,25L283,444.82l-1.09,13s4.44-4.46,4.45-4.45" transform="translate(-130 -393.07)"></path><path class="cls-3 jjgaVVfC_40" d="M236.53,427.33c.58.57,1.16-2.39,1.78-1.77,0,0,1.38,8.7,2.22,9.53,0,0,14-14.94,14.48-14.48,3.94,3.93-15,26.86-14.89,27,2.13,2.13,23.72-29.88,26.8-26.8C278,431.94,232.65,449.17,241.49,458c0,0,13.59-18,15.8-15.8,0,0-3.85,15.49-3.49,15.85,1.84,1.85,4.95-6.16,5.55-5.55" transform="translate(-130 -393.07)"></path><path class="cls-3 jjgaVVfC_41" d="M306.05,442.26c2.6,2.59,14.4-19.59,17-17" transform="translate(-130 -393.07)"></path><path class="cls-3 jjgaVVfC_42" d="M289.92,443.21c.7.7,2.19-3.64,2.92-2.91,3,3-2.68,13.92-2.27,14.33l30.86-30.87c7.15,7.16-22.56,34.78-22.56,34.78s5.54-10.29,7.91-7.92c0,0,6.08,5.58,6.27,5.77l12.55-12.54-1.52,13.44s5.29-5.31,5.3-5.3" transform="translate(-130 -393.07)"></path><path class="cls-3 jjgaVVfC_43" d="M291.56,427.75c1,1,1.95-4,3-3,0,0,2,8.18,2.77,9,0,0,13-13.88,13.46-13.45,1.71,1.72-1.36,13.34-1.29,13.4.85.86,9.5-12,10.73-10.73" transform="translate(-130 -393.07)"></path><path class="cls-3 jjgaVVfC_44" d="M381.71,434.92c.28.27,1.54-2.1,1.82-1.82.5.51,4.5,7.86,4.5,7.86,2.06,2.06,8.87-11.08,10-10" transform="translate(-130 -393.07)"></path><path class="cls-3 jjgaVVfC_45" d="M376.14,415.94c2.4,2.4,7.57-12.61,10.09-10.09,2.18,2.18,1.2,10.25,1.51,10.55l10.09-10.09c2.89,2.89-4.05,16.26-4.05,16.26s6.85-12.7,9.78-9.78" transform="translate(-130 -393.07)"></path><path class="cls-3 jjgaVVfC_46" d="M357.57,415.89c1.4,1.4,2.82-5.81,4.32-4.32,0,0-11.78,19.52-9.77,21.53,0,0,26.87-28.64,27.76-27.75,5.76,5.76-25.56,37.24-25.34,37.45,1.3,1.31,14.56-18.34,16.45-16.45,6.48,6.48-16.88,18.34-11.73,23.49,0,0,11.27-14.93,13.1-13.1,0,0-6.46,18-6,18.39,3.52,3.52,9.45-11.76,10.6-10.61.88.88-1.26,13.71-1.26,13.71,1.43,1.43,7.11-13.93,10.52-10.52L388,457.85l22.34-22.34" transform="translate(-130 -393.07)"></path><path class="cls-3 jjgaVVfC_47" d="M437.89,424.51c.36.36,1.14-1.89,1.52-1.51,2,2,2.32,9.18,2.6,9.46l11.89-11.89c4.65,4.65-12,24.18-12,24.18s11.85-22,16.92-16.91" transform="translate(-130 -393.07)"></path><path class="cls-3 jjgaVVfC_48" d="M412.39,424.67c.52.52,1.05-2.16,1.6-1.6,0,0,2.06,8.1,2.86,8.9,0,0,11-11.71,11.34-11.34,3.28,3.27-11.19,23.06-11.07,23.18,1.3,1.29,14.39-18.13,16.26-16.26,7.3,7.3-20,20.15-14.2,26,0,0,12.22-16.18,14.2-14.2,0,0-7,18.45-6.53,18.89,3.06,3.06,8.2-10.2,9.2-9.2l6.23,6.22c2.24,2.24,11.16-21.86,16.51-16.51L451.5,458l8.81-8.8" transform="translate(-130 -393.07)"></path><path class="cls-3 jjgaVVfC_49" d="M483.94,429.11c2,2,6.35-10.6,8.47-8.48,3,3-2.72,14-2.31,14.37l10.78-10.78c4,4-9.19,21.41-9.19,21.41s10.37-19.25,14.81-14.81" transform="translate(-130 -393.07)"></path><path class="cls-3 jjgaVVfC_50" d="M468.46,429.55c1.37,1.38,2.77-5.71,4.24-4.23,0,0-9.17,17.42-7.42,19.17,0,0,23.4-24.95,24.17-24.17,4.84,4.84-20.24,32-20.06,32.18,1,1,11.55-14.55,13-13.05,4.64,4.64-9.7,14.1-6,17.78,0,0,7.78-10.29,9-9,0,0,1.87,10,2.1,10.26,7,7,18.68-23.23,20.95-21" transform="translate(-130 -393.07)"></path><path class="cls-4 jjgaVVfC_51" d="M163.81,409.1c.46.46,1.45-2.43,1.93-1.94,2.11,2.1,1.7,9.78,2,10.07l11.6-11.6c6,6-17.55,29.76-17.55,29.76s19.27-35.76,27.52-27.52c0,0-22.14,32.37-21.24,33.28l17.38-17.38-20.73,32.66s20.41-20.49,20.45-20.45c2.41,2.41-10.67,22.42-10.67,22.42,1.64,1.63,11.16-11.16,11.16-11.16s.24,7.3,2.28,9.33c.2.2,1.45-2.15,1.8-1.8" transform="translate(-130 -393.07)"></path><path class="cls-4 jjgaVVfC_52" d="M132,410.05c.58.58,1.18-2.43,1.8-1.81,0,0,2,8.15,2.81,8.95,0,0,11.26-12,11.63-11.63,3.32,3.31-11.4,23.27-11.28,23.39,1.69,1.69,18.78-23.65,21.22-21.22,9.72,9.72-29,25.36-21.33,33.09,0,0,15-19.92,17.48-17.48,0,0-21.76,32.39-20.89,33.25,10,10,26.88-33.43,30.16-30.15,2.39,2.39-19.53,32-19.53,32,1.47,1.47,7.3-14.28,10.79-10.79" transform="translate(-130 -393.07)"></path><path class="cls-4 jjgaVVfC_53" d="M210.65,442.26c2.59,2.59,14.39-19.59,17-17" transform="translate(-130 -393.07)"></path><path class="cls-4 jjgaVVfC_54" d="M194.52,443.21c.69.7,2.19-3.64,2.91-2.91,3,3-2.68,13.92-2.27,14.33L226,423.76c7.15,7.16-22.56,34.78-22.56,34.78s5.54-10.29,7.91-7.92l6.27,5.77,12.54-12.54-1.52,13.44S234,452,234,452" transform="translate(-130 -393.07)"></path><path class="cls-4 jjgaVVfC_55" d="M196.15,427.75c1,1,2-4,3-3,0,0,2,8.18,2.78,9,0,0,13-13.88,13.45-13.45,1.72,1.72-1.35,13.34-1.29,13.4.85.86,9.5-12,10.73-10.73" transform="translate(-130 -393.07)"></path><path class="cls-4 jjgaVVfC_56" d="M259.61,431.87c2.69,2.69,8.48-14.13,11.3-11.3,3.54,3.53-5.08,16.16-4.59,16.65l13-13c5,5-13.53,25.74-13.53,25.74s11.66-21.63,16.64-16.64c0,0-13.63,24.37-13,25L283,444.82l-1.09,13s4.44-4.46,4.45-4.45" transform="translate(-130 -393.07)"></path><path class="cls-4 jjgaVVfC_57" d="M236.53,427.33c.58.57,1.16-2.39,1.78-1.77,0,0,1.38,8.7,2.22,9.53,0,0,14-14.94,14.48-14.48,3.94,3.93-15,26.86-14.89,27,2.13,2.13,23.72-29.88,26.8-26.8C278,431.94,232.65,449.17,241.49,458c0,0,13.59-18,15.8-15.8,0,0-3.85,15.49-3.49,15.85,1.84,1.85,4.95-6.16,5.55-5.55" transform="translate(-130 -393.07)"></path><path class="cls-4 jjgaVVfC_58" d="M306.05,442.26c2.6,2.59,14.4-19.59,17-17" transform="translate(-130 -393.07)"></path><path class="cls-4 jjgaVVfC_59" d="M289.92,443.21c.7.7,2.19-3.64,2.92-2.91,3,3-2.68,13.92-2.27,14.33l30.86-30.87c7.15,7.16-22.56,34.78-22.56,34.78s5.54-10.29,7.91-7.92c0,0,6.08,5.58,6.27,5.77l12.55-12.54-1.52,13.44s5.29-5.31,5.3-5.3" transform="translate(-130 -393.07)"></path><path class="cls-4 jjgaVVfC_60" d="M291.56,427.75c1,1,1.95-4,3-3,0,0,2,8.18,2.77,9,0,0,13-13.88,13.46-13.45,1.71,1.72-1.36,13.34-1.29,13.4.85.86,9.5-12,10.73-10.73" transform="translate(-130 -393.07)"></path><path class="cls-4 jjgaVVfC_61" d="M381.71,434.92c.28.27,1.54-2.1,1.82-1.82.5.51,4.5,7.86,4.5,7.86,2.06,2.06,8.87-11.08,10-10" transform="translate(-130 -393.07)"></path><path class="cls-4 jjgaVVfC_62" d="M376.14,415.94c2.4,2.4,7.57-12.61,10.09-10.09,2.18,2.18,1.2,10.25,1.51,10.55l10.09-10.09c2.89,2.89-4.05,16.26-4.05,16.26s6.85-12.7,9.78-9.78" transform="translate(-130 -393.07)"></path><path class="cls-4 jjgaVVfC_63" d="M357.57,415.89c1.4,1.4,2.82-5.81,4.32-4.32,0,0-11.78,19.52-9.77,21.53,0,0,26.87-28.64,27.76-27.75,5.76,5.76-25.56,37.24-25.34,37.45,1.3,1.31,14.56-18.34,16.45-16.45,6.48,6.48-16.88,18.34-11.73,23.49,0,0,11.27-14.93,13.1-13.1,0,0-6.46,18-6,18.39,3.52,3.52,9.45-11.76,10.6-10.61.88.88-1.26,13.71-1.26,13.71,1.43,1.43,7.11-13.93,10.52-10.52L388,457.85l22.34-22.34" transform="translate(-130 -393.07)"></path><path class="cls-4 jjgaVVfC_64" d="M437.89,424.51c.36.36,1.14-1.89,1.52-1.51,2,2,2.32,9.18,2.6,9.46l11.89-11.89c4.65,4.65-12,24.18-12,24.18s11.85-22,16.92-16.91" transform="translate(-130 -393.07)"></path><path class="cls-4 jjgaVVfC_65" d="M412.39,424.67c.52.52,1.05-2.16,1.6-1.6,0,0,2.06,8.1,2.86,8.9,0,0,11-11.71,11.34-11.34,3.28,3.27-11.19,23.06-11.07,23.18,1.3,1.29,14.39-18.13,16.26-16.26,7.3,7.3-20,20.15-14.2,26,0,0,12.22-16.18,14.2-14.2,0,0-7,18.45-6.53,18.89,3.06,3.06,8.2-10.2,9.2-9.2l6.23,6.22c2.24,2.24,11.16-21.86,16.51-16.51L451.5,458l8.81-8.8" transform="translate(-130 -393.07)"></path><path class="cls-4 jjgaVVfC_66" d="M483.94,429.11c2,2,6.35-10.6,8.47-8.48,3,3-2.72,14-2.31,14.37l10.78-10.78c4,4-9.19,21.41-9.19,21.41s10.37-19.25,14.81-14.81" transform="translate(-130 -393.07)"></path><path class="cls-4 jjgaVVfC_67" d="M468.46,429.55c1.37,1.38,2.77-5.71,4.24-4.23,0,0-9.17,17.42-7.42,19.17,0,0,23.4-24.95,24.17-24.17,4.84,4.84-20.24,32-20.06,32.18,1,1,11.55-14.55,13-13.05,4.64,4.64-9.7,14.1-6,17.78,0,0,7.78-10.29,9-9,0,0,1.87,10,2.1,10.26,7,7,18.68-23.23,20.95-21" transform="translate(-130 -393.07)"></path><style data-made-with="vivus-instant">.jjgaVVfC_0{stroke-dasharray:282 284;stroke-dashoffset:283;animation:jjgaVVfC_draw_0 7200ms linear 0ms infinite,jjgaVVfC_fade 7200ms linear 0ms infinite;}.jjgaVVfC_1{stroke-dasharray:296 298;stroke-dashoffset:297;animation:jjgaVVfC_draw_1 7200ms linear 0ms infinite,jjgaVVfC_fade 7200ms linear 0ms infinite;}.jjgaVVfC_2{stroke-dasharray:25 27;stroke-dashoffset:26;animation:jjgaVVfC_draw_2 7200ms linear 0ms infinite,jjgaVVfC_fade 7200ms linear 0ms infinite;}.jjgaVVfC_3{stroke-dasharray:160 162;stroke-dashoffset:161;animation:jjgaVVfC_draw_3 7200ms linear 0ms infinite,jjgaVVfC_fade 7200ms linear 0ms infinite;}.jjgaVVfC_4{stroke-dasharray:64 66;stroke-dashoffset:65;animation:jjgaVVfC_draw_4 7200ms linear 0ms infinite,jjgaVVfC_fade 7200ms linear 0ms infinite;}.jjgaVVfC_5{stroke-dasharray:172 174;stroke-dashoffset:173;animation:jjgaVVfC_draw_5 7200ms linear 0ms infinite,jjgaVVfC_fade 7200ms linear 0ms infinite;}.jjgaVVfC_6{stroke-dasharray:199 201;stroke-dashoffset:200;animation:jjgaVVfC_draw_6 7200ms linear 0ms infinite,jjgaVVfC_fade 7200ms linear 0ms infinite;}.jjgaVVfC_7{stroke-dasharray:25 27;stroke-dashoffset:26;animation:jjgaVVfC_draw_7 7200ms linear 0ms infinite,jjgaVVfC_fade 7200ms linear 0ms infinite;}.jjgaVVfC_8{stroke-dasharray:160 162;stroke-dashoffset:161;animation:jjgaVVfC_draw_8 7200ms linear 0ms infinite,jjgaVVfC_fade 7200ms linear 0ms infinite;}.jjgaVVfC_9{stroke-dasharray:64 66;stroke-dashoffset:65;animation:jjgaVVfC_draw_9 7200ms linear 0ms infinite,jjgaVVfC_fade 7200ms linear 0ms infinite;}.jjgaVVfC_10{stroke-dasharray:28 30;stroke-dashoffset:29;animation:jjgaVVfC_draw_10 7200ms linear 0ms infinite,jjgaVVfC_fade 7200ms linear 0ms infinite;}.jjgaVVfC_11{stroke-dasharray:71 73;stroke-dashoffset:72;animation:jjgaVVfC_draw_11 7200ms linear 0ms infinite,jjgaVVfC_fade 7200ms linear 0ms infinite;}.jjgaVVfC_12{stroke-dasharray:340 342;stroke-dashoffset:341;animation:jjgaVVfC_draw_12 7200ms linear 0ms infinite,jjgaVVfC_fade 7200ms linear 0ms infinite;}.jjgaVVfC_13{stroke-dasharray:82 84;stroke-dashoffset:83;animation:jjgaVVfC_draw_13 7200ms linear 0ms infinite,jjgaVVfC_fade 7200ms linear 0ms infinite;}.jjgaVVfC_14{stroke-dasharray:229 231;stroke-dashoffset:230;animation:jjgaVVfC_draw_14 7200ms linear 0ms infinite,jjgaVVfC_fade 7200ms linear 0ms infinite;}.jjgaVVfC_15{stroke-dasharray:88 90;stroke-dashoffset:89;animation:jjgaVVfC_draw_15 7200ms linear 0ms infinite,jjgaVVfC_fade 7200ms linear 0ms infinite;}.jjgaVVfC_16{stroke-dasharray:194 196;stroke-dashoffset:195;animation:jjgaVVfC_draw_16 7200ms linear 0ms infinite,jjgaVVfC_fade 7200ms linear 0ms infinite;}.jjgaVVfC_17{stroke-dasharray:294 296;stroke-dashoffset:295;animation:jjgaVVfC_draw_17 7200ms linear 0ms infinite,jjgaVVfC_fade 7200ms linear 0ms infinite;}.jjgaVVfC_18{stroke-dasharray:296 298;stroke-dashoffset:297;animation:jjgaVVfC_draw_18 7200ms linear 0ms infinite,jjgaVVfC_fade 7200ms linear 0ms infinite;}.jjgaVVfC_19{stroke-dasharray:26 28;stroke-dashoffset:27;animation:jjgaVVfC_draw_19 7200ms linear 0ms infinite,jjgaVVfC_fade 7200ms linear 0ms infinite;}.jjgaVVfC_20{stroke-dasharray:167 169;stroke-dashoffset:168;animation:jjgaVVfC_draw_20 7200ms linear 0ms infinite,jjgaVVfC_fade 7200ms linear 0ms infinite;}.jjgaVVfC_21{stroke-dasharray:63 65;stroke-dashoffset:64;animation:jjgaVVfC_draw_21 7200ms linear 0ms infinite,jjgaVVfC_fade 7200ms linear 0ms infinite;}.jjgaVVfC_22{stroke-dasharray:177 179;stroke-dashoffset:178;animation:jjgaVVfC_draw_22 7200ms linear 0ms infinite,jjgaVVfC_fade 7200ms linear 0ms infinite;}.jjgaVVfC_23{stroke-dasharray:202 204;stroke-dashoffset:203;animation:jjgaVVfC_draw_23 7200ms linear 0ms infinite,jjgaVVfC_fade 7200ms linear 0ms infinite;}.jjgaVVfC_24{stroke-dasharray:26 28;stroke-dashoffset:27;animation:jjgaVVfC_draw_24 7200ms linear 0ms infinite,jjgaVVfC_fade 7200ms linear 0ms infinite;}.jjgaVVfC_25{stroke-dasharray:167 169;stroke-dashoffset:168;animation:jjgaVVfC_draw_25 7200ms linear 0ms infinite,jjgaVVfC_fade 7200ms linear 0ms infinite;}.jjgaVVfC_26{stroke-dasharray:63 65;stroke-dashoffset:64;animation:jjgaVVfC_draw_26 7200ms linear 0ms infinite,jjgaVVfC_fade 7200ms linear 0ms infinite;}.jjgaVVfC_27{stroke-dasharray:27 29;stroke-dashoffset:28;animation:jjgaVVfC_draw_27 7200ms linear 0ms infinite,jjgaVVfC_fade 7200ms linear 0ms infinite;}.jjgaVVfC_28{stroke-dasharray:73 75;stroke-dashoffset:74;animation:jjgaVVfC_draw_28 7200ms linear 0ms infinite,jjgaVVfC_fade 7200ms linear 0ms infinite;}.jjgaVVfC_29{stroke-dasharray:297 299;stroke-dashoffset:298;animation:jjgaVVfC_draw_29 7200ms linear 0ms infinite,jjgaVVfC_fade 7200ms linear 0ms infinite;}.jjgaVVfC_30{stroke-dasharray:84 86;stroke-dashoffset:85;animation:jjgaVVfC_draw_30 7200ms linear 0ms infinite,jjgaVVfC_fade 7200ms linear 0ms infinite;}.jjgaVVfC_31{stroke-dasharray:233 235;stroke-dashoffset:234;animation:jjgaVVfC_draw_31 7200ms linear 0ms infinite,jjgaVVfC_fade 7200ms linear 0ms infinite;}.jjgaVVfC_32{stroke-dasharray:91 93;stroke-dashoffset:92;animation:jjgaVVfC_draw_32 7200ms linear 0ms infinite,jjgaVVfC_fade 7200ms linear 0ms infinite;}.jjgaVVfC_33{stroke-dasharray:197 199;stroke-dashoffset:198;animation:jjgaVVfC_draw_33 7200ms linear 0ms infinite,jjgaVVfC_fade 7200ms linear 0ms infinite;}.jjgaVVfC_34{stroke-dasharray:294 296;stroke-dashoffset:295;animation:jjgaVVfC_draw_34 7200ms linear 0ms infinite,jjgaVVfC_fade 7200ms linear 0ms infinite;}.jjgaVVfC_35{stroke-dasharray:296 298;stroke-dashoffset:297;animation:jjgaVVfC_draw_35 7200ms linear 0ms infinite,jjgaVVfC_fade 7200ms linear 0ms infinite;}.jjgaVVfC_36{stroke-dasharray:26 28;stroke-dashoffset:27;animation:jjgaVVfC_draw_36 7200ms linear 0ms infinite,jjgaVVfC_fade 7200ms linear 0ms infinite;}.jjgaVVfC_37{stroke-dasharray:167 169;stroke-dashoffset:168;animation:jjgaVVfC_draw_37 7200ms linear 0ms infinite,jjgaVVfC_fade 7200ms linear 0ms infinite;}.jjgaVVfC_38{stroke-dasharray:63 65;stroke-dashoffset:64;animation:jjgaVVfC_draw_38 7200ms linear 0ms infinite,jjgaVVfC_fade 7200ms linear 0ms infinite;}.jjgaVVfC_39{stroke-dasharray:177 179;stroke-dashoffset:178;animation:jjgaVVfC_draw_39 7200ms linear 0ms infinite,jjgaVVfC_fade 7200ms linear 0ms infinite;}.jjgaVVfC_40{stroke-dasharray:202 204;stroke-dashoffset:203;animation:jjgaVVfC_draw_40 7200ms linear 0ms infinite,jjgaVVfC_fade 7200ms linear 0ms infinite;}.jjgaVVfC_41{stroke-dasharray:26 28;stroke-dashoffset:27;animation:jjgaVVfC_draw_41 7200ms linear 0ms infinite,jjgaVVfC_fade 7200ms linear 0ms infinite;}.jjgaVVfC_42{stroke-dasharray:167 169;stroke-dashoffset:168;animation:jjgaVVfC_draw_42 7200ms linear 0ms infinite,jjgaVVfC_fade 7200ms linear 0ms infinite;}.jjgaVVfC_43{stroke-dasharray:63 65;stroke-dashoffset:64;animation:jjgaVVfC_draw_43 7200ms linear 0ms infinite,jjgaVVfC_fade 7200ms linear 0ms infinite;}.jjgaVVfC_44{stroke-dasharray:27 29;stroke-dashoffset:28;animation:jjgaVVfC_draw_44 7200ms linear 0ms infinite,jjgaVVfC_fade 7200ms linear 0ms infinite;}.jjgaVVfC_45{stroke-dasharray:73 75;stroke-dashoffset:74;animation:jjgaVVfC_draw_45 7200ms linear 0ms infinite,jjgaVVfC_fade 7200ms linear 0ms infinite;}.jjgaVVfC_46{stroke-dasharray:297 299;stroke-dashoffset:298;animation:jjgaVVfC_draw_46 7200ms linear 0ms infinite,jjgaVVfC_fade 7200ms linear 0ms infinite;}.jjgaVVfC_47{stroke-dasharray:84 86;stroke-dashoffset:85;animation:jjgaVVfC_draw_47 7200ms linear 0ms infinite,jjgaVVfC_fade 7200ms linear 0ms infinite;}.jjgaVVfC_48{stroke-dasharray:233 235;stroke-dashoffset:234;animation:jjgaVVfC_draw_48 7200ms linear 0ms infinite,jjgaVVfC_fade 7200ms linear 0ms infinite;}.jjgaVVfC_49{stroke-dasharray:91 93;stroke-dashoffset:92;animation:jjgaVVfC_draw_49 7200ms linear 0ms infinite,jjgaVVfC_fade 7200ms linear 0ms infinite;}.jjgaVVfC_50{stroke-dasharray:197 199;stroke-dashoffset:198;animation:jjgaVVfC_draw_50 7200ms linear 0ms infinite,jjgaVVfC_fade 7200ms linear 0ms infinite;}.jjgaVVfC_51{stroke-dasharray:294 296;stroke-dashoffset:295;animation:jjgaVVfC_draw_51 7200ms linear 0ms infinite,jjgaVVfC_fade 7200ms linear 0ms infinite;}.jjgaVVfC_52{stroke-dasharray:296 298;stroke-dashoffset:297;animation:jjgaVVfC_draw_52 7200ms linear 0ms infinite,jjgaVVfC_fade 7200ms linear 0ms infinite;}.jjgaVVfC_53{stroke-dasharray:26 28;stroke-dashoffset:27;animation:jjgaVVfC_draw_53 7200ms linear 0ms infinite,jjgaVVfC_fade 7200ms linear 0ms infinite;}.jjgaVVfC_54{stroke-dasharray:167 169;stroke-dashoffset:168;animation:jjgaVVfC_draw_54 7200ms linear 0ms infinite,jjgaVVfC_fade 7200ms linear 0ms infinite;}.jjgaVVfC_55{stroke-dasharray:63 65;stroke-dashoffset:64;animation:jjgaVVfC_draw_55 7200ms linear 0ms infinite,jjgaVVfC_fade 7200ms linear 0ms infinite;}.jjgaVVfC_56{stroke-dasharray:177 179;stroke-dashoffset:178;animation:jjgaVVfC_draw_56 7200ms linear 0ms infinite,jjgaVVfC_fade 7200ms linear 0ms infinite;}.jjgaVVfC_57{stroke-dasharray:202 204;stroke-dashoffset:203;animation:jjgaVVfC_draw_57 7200ms linear 0ms infinite,jjgaVVfC_fade 7200ms linear 0ms infinite;}.jjgaVVfC_58{stroke-dasharray:26 28;stroke-dashoffset:27;animation:jjgaVVfC_draw_58 7200ms linear 0ms infinite,jjgaVVfC_fade 7200ms linear 0ms infinite;}.jjgaVVfC_59{stroke-dasharray:167 169;stroke-dashoffset:168;animation:jjgaVVfC_draw_59 7200ms linear 0ms infinite,jjgaVVfC_fade 7200ms linear 0ms infinite;}.jjgaVVfC_60{stroke-dasharray:63 65;stroke-dashoffset:64;animation:jjgaVVfC_draw_60 7200ms linear 0ms infinite,jjgaVVfC_fade 7200ms linear 0ms infinite;}.jjgaVVfC_61{stroke-dasharray:27 29;stroke-dashoffset:28;animation:jjgaVVfC_draw_61 7200ms linear 0ms infinite,jjgaVVfC_fade 7200ms linear 0ms infinite;}.jjgaVVfC_62{stroke-dasharray:73 75;stroke-dashoffset:74;animation:jjgaVVfC_draw_62 7200ms linear 0ms infinite,jjgaVVfC_fade 7200ms linear 0ms infinite;}.jjgaVVfC_63{stroke-dasharray:297 299;stroke-dashoffset:298;animation:jjgaVVfC_draw_63 7200ms linear 0ms infinite,jjgaVVfC_fade 7200ms linear 0ms infinite;}.jjgaVVfC_64{stroke-dasharray:84 86;stroke-dashoffset:85;animation:jjgaVVfC_draw_64 7200ms linear 0ms infinite,jjgaVVfC_fade 7200ms linear 0ms infinite;}.jjgaVVfC_65{stroke-dasharray:233 235;stroke-dashoffset:234;animation:jjgaVVfC_draw_65 7200ms linear 0ms infinite,jjgaVVfC_fade 7200ms linear 0ms infinite;}.jjgaVVfC_66{stroke-dasharray:91 93;stroke-dashoffset:92;animation:jjgaVVfC_draw_66 7200ms linear 0ms infinite,jjgaVVfC_fade 7200ms linear 0ms infinite;}.jjgaVVfC_67{stroke-dasharray:197 199;stroke-dashoffset:198;animation:jjgaVVfC_draw_67 7200ms linear 0ms infinite,jjgaVVfC_fade 7200ms linear 0ms infinite;}@keyframes jjgaVVfC_draw{100%{stroke-dashoffset:0;}}@keyframes jjgaVVfC_fade{0%{stroke-opacity:1;}94.44444444444444%{stroke-opacity:1;}100%{stroke-opacity:0;}}@keyframes jjgaVVfC_draw_0{11.11111111111111%{stroke-dashoffset: 283}38.88888888888889%{ stroke-dashoffset: 0;}100%{ stroke-dashoffset: 0;}}@keyframes jjgaVVfC_draw_1{11.318407960199005%{stroke-dashoffset: 297}39.09618573797678%{ stroke-dashoffset: 0;}100%{ stroke-dashoffset: 0;}}@keyframes jjgaVVfC_draw_2{11.5257048092869%{stroke-dashoffset: 26}39.30348258706468%{ stroke-dashoffset: 0;}100%{ stroke-dashoffset: 0;}}@keyframes jjgaVVfC_draw_3{11.733001658374793%{stroke-dashoffset: 161}39.51077943615257%{ stroke-dashoffset: 0;}100%{ stroke-dashoffset: 0;}}@keyframes jjgaVVfC_draw_4{11.940298507462687%{stroke-dashoffset: 65}39.718076285240464%{ stroke-dashoffset: 0;}100%{ stroke-dashoffset: 0;}}@keyframes jjgaVVfC_draw_5{12.14759535655058%{stroke-dashoffset: 173}39.92537313432836%{ stroke-dashoffset: 0;}100%{ stroke-dashoffset: 0;}}@keyframes jjgaVVfC_draw_6{12.354892205638473%{stroke-dashoffset: 200}40.13266998341625%{ stroke-dashoffset: 0;}100%{ stroke-dashoffset: 0;}}@keyframes jjgaVVfC_draw_7{12.56218905472637%{stroke-dashoffset: 26}40.339966832504146%{ stroke-dashoffset: 0;}100%{ stroke-dashoffset: 0;}}@keyframes jjgaVVfC_draw_8{12.769485903814262%{stroke-dashoffset: 161}40.547263681592035%{ stroke-dashoffset: 0;}100%{ stroke-dashoffset: 0;}}@keyframes jjgaVVfC_draw_9{12.976782752902155%{stroke-dashoffset: 65}40.75456053067993%{ stroke-dashoffset: 0;}100%{ stroke-dashoffset: 0;}}@keyframes jjgaVVfC_draw_10{13.184079601990051%{stroke-dashoffset: 29}40.96185737976783%{ stroke-dashoffset: 0;}100%{ stroke-dashoffset: 0;}}@keyframes jjgaVVfC_draw_11{13.391376451077944%{stroke-dashoffset: 72}41.16915422885572%{ stroke-dashoffset: 0;}100%{ stroke-dashoffset: 0;}}@keyframes jjgaVVfC_draw_12{13.598673300165837%{stroke-dashoffset: 341}41.376451077943614%{ stroke-dashoffset: 0;}100%{ stroke-dashoffset: 0;}}@keyframes jjgaVVfC_draw_13{13.805970149253731%{stroke-dashoffset: 83}41.5837479270315%{ stroke-dashoffset: 0;}100%{ stroke-dashoffset: 0;}}@keyframes jjgaVVfC_draw_14{14.013266998341626%{stroke-dashoffset: 230}41.791044776119406%{ stroke-dashoffset: 0;}100%{ stroke-dashoffset: 0;}}@keyframes jjgaVVfC_draw_15{14.220563847429519%{stroke-dashoffset: 89}41.99834162520729%{ stroke-dashoffset: 0;}100%{ stroke-dashoffset: 0;}}@keyframes jjgaVVfC_draw_16{14.427860696517412%{stroke-dashoffset: 195}42.20563847429519%{ stroke-dashoffset: 0;}100%{ stroke-dashoffset: 0;}}@keyframes jjgaVVfC_draw_17{14.63515754560531%{stroke-dashoffset: 295}42.41293532338309%{ stroke-dashoffset: 0;}100%{ stroke-dashoffset: 0;}}@keyframes jjgaVVfC_draw_18{14.842454394693203%{stroke-dashoffset: 297}42.62023217247098%{ stroke-dashoffset: 0;}100%{ stroke-dashoffset: 0;}}@keyframes jjgaVVfC_draw_19{15.049751243781095%{stroke-dashoffset: 27}42.827529021558874%{ stroke-dashoffset: 0;}100%{ stroke-dashoffset: 0;}}@keyframes jjgaVVfC_draw_20{15.257048092868988%{stroke-dashoffset: 168}43.03482587064676%{ stroke-dashoffset: 0;}100%{ stroke-dashoffset: 0;}}@keyframes jjgaVVfC_draw_21{15.464344941956881%{stroke-dashoffset: 64}43.24212271973466%{ stroke-dashoffset: 0;}100%{ stroke-dashoffset: 0;}}@keyframes jjgaVVfC_draw_22{15.671641791044777%{stroke-dashoffset: 178}43.44941956882255%{ stroke-dashoffset: 0;}100%{ stroke-dashoffset: 0;}}@keyframes jjgaVVfC_draw_23{15.87893864013267%{stroke-dashoffset: 203}43.65671641791045%{ stroke-dashoffset: 0;}100%{ stroke-dashoffset: 0;}}@keyframes jjgaVVfC_draw_24{16.086235489220563%{stroke-dashoffset: 27}43.864013266998334%{ stroke-dashoffset: 0;}100%{ stroke-dashoffset: 0;}}@keyframes jjgaVVfC_draw_25{16.293532338308456%{stroke-dashoffset: 168}44.07131011608624%{ stroke-dashoffset: 0;}100%{ stroke-dashoffset: 0;}}@keyframes jjgaVVfC_draw_26{16.500829187396356%{stroke-dashoffset: 64}44.278606965174134%{ stroke-dashoffset: 0;}100%{ stroke-dashoffset: 0;}}@keyframes jjgaVVfC_draw_27{16.70812603648425%{stroke-dashoffset: 28}44.485903814262024%{ stroke-dashoffset: 0;}100%{ stroke-dashoffset: 0;}}@keyframes jjgaVVfC_draw_28{16.91542288557214%{stroke-dashoffset: 74}44.69320066334992%{ stroke-dashoffset: 0;}100%{ stroke-dashoffset: 0;}}@keyframes jjgaVVfC_draw_29{17.122719734660034%{stroke-dashoffset: 298}44.90049751243781%{ stroke-dashoffset: 0;}100%{ stroke-dashoffset: 0;}}@keyframes jjgaVVfC_draw_30{17.330016583747927%{stroke-dashoffset: 85}45.107794361525706%{ stroke-dashoffset: 0;}100%{ stroke-dashoffset: 0;}}@keyframes jjgaVVfC_draw_31{17.53731343283582%{stroke-dashoffset: 234}45.315091210613595%{ stroke-dashoffset: 0;}100%{ stroke-dashoffset: 0;}}@keyframes jjgaVVfC_draw_32{17.744610281923716%{stroke-dashoffset: 92}45.5223880597015%{ stroke-dashoffset: 0;}100%{ stroke-dashoffset: 0;}}@keyframes jjgaVVfC_draw_33{17.95190713101161%{stroke-dashoffset: 198}45.72968490878938%{ stroke-dashoffset: 0;}100%{ stroke-dashoffset: 0;}}@keyframes jjgaVVfC_draw_34{18.1592039800995%{stroke-dashoffset: 295}45.936981757877284%{ stroke-dashoffset: 0;}100%{ stroke-dashoffset: 0;}}@keyframes jjgaVVfC_draw_35{18.366500829187398%{stroke-dashoffset: 297}46.14427860696518%{ stroke-dashoffset: 0;}100%{ stroke-dashoffset: 0;}}@keyframes jjgaVVfC_draw_36{18.57379767827529%{stroke-dashoffset: 27}46.35157545605307%{ stroke-dashoffset: 0;}100%{ stroke-dashoffset: 0;}}@keyframes jjgaVVfC_draw_37{18.781094527363184%{stroke-dashoffset: 168}46.558872305140966%{ stroke-dashoffset: 0;}100%{ stroke-dashoffset: 0;}}@keyframes jjgaVVfC_draw_38{18.988391376451077%{stroke-dashoffset: 64}46.766169154228855%{ stroke-dashoffset: 0;}100%{ stroke-dashoffset: 0;}}@keyframes jjgaVVfC_draw_39{19.19568822553897%{stroke-dashoffset: 178}46.97346600331675%{ stroke-dashoffset: 0;}100%{ stroke-dashoffset: 0;}}@keyframes jjgaVVfC_draw_40{19.402985074626862%{stroke-dashoffset: 203}47.18076285240464%{ stroke-dashoffset: 0;}100%{ stroke-dashoffset: 0;}}@keyframes jjgaVVfC_draw_41{19.61028192371476%{stroke-dashoffset: 27}47.38805970149254%{ stroke-dashoffset: 0;}100%{ stroke-dashoffset: 0;}}@keyframes jjgaVVfC_draw_42{19.817578772802655%{stroke-dashoffset: 168}47.59535655058043%{ stroke-dashoffset: 0;}100%{ stroke-dashoffset: 0;}}@keyframes jjgaVVfC_draw_43{20.024875621890548%{stroke-dashoffset: 64}47.80265339966833%{ stroke-dashoffset: 0;}100%{ stroke-dashoffset: 0;}}@keyframes jjgaVVfC_draw_44{20.232172470978444%{stroke-dashoffset: 28}48.00995024875622%{ stroke-dashoffset: 0;}100%{ stroke-dashoffset: 0;}}@keyframes jjgaVVfC_draw_45{20.439469320066337%{stroke-dashoffset: 74}48.217247097844115%{ stroke-dashoffset: 0;}100%{ stroke-dashoffset: 0;}}@keyframes jjgaVVfC_draw_46{20.64676616915423%{stroke-dashoffset: 298}48.424543946932005%{ stroke-dashoffset: 0;}100%{ stroke-dashoffset: 0;}}@keyframes jjgaVVfC_draw_47{20.854063018242122%{stroke-dashoffset: 85}48.6318407960199%{ stroke-dashoffset: 0;}100%{ stroke-dashoffset: 0;}}@keyframes jjgaVVfC_draw_48{21.06135986733002%{stroke-dashoffset: 234}48.8391376451078%{ stroke-dashoffset: 0;}100%{ stroke-dashoffset: 0;}}@keyframes jjgaVVfC_draw_49{21.26865671641791%{stroke-dashoffset: 92}49.04643449419569%{ stroke-dashoffset: 0;}100%{ stroke-dashoffset: 0;}}@keyframes jjgaVVfC_draw_50{21.475953565505804%{stroke-dashoffset: 198}49.25373134328358%{ stroke-dashoffset: 0;}100%{ stroke-dashoffset: 0;}}@keyframes jjgaVVfC_draw_51{21.6832504145937%{stroke-dashoffset: 295}49.46102819237147%{ stroke-dashoffset: 0;}100%{ stroke-dashoffset: 0;}}@keyframes jjgaVVfC_draw_52{21.890547263681594%{stroke-dashoffset: 297}49.66832504145937%{ stroke-dashoffset: 0;}100%{ stroke-dashoffset: 0;}}@keyframes jjgaVVfC_draw_53{22.097844112769486%{stroke-dashoffset: 27}49.875621890547265%{ stroke-dashoffset: 0;}100%{ stroke-dashoffset: 0;}}@keyframes jjgaVVfC_draw_54{22.30514096185738%{stroke-dashoffset: 168}50.08291873963516%{ stroke-dashoffset: 0;}100%{ stroke-dashoffset: 0;}}@keyframes jjgaVVfC_draw_55{22.512437810945272%{stroke-dashoffset: 64}50.29021558872305%{ stroke-dashoffset: 0;}100%{ stroke-dashoffset: 0;}}@keyframes jjgaVVfC_draw_56{22.71973466003317%{stroke-dashoffset: 178}50.49751243781094%{ stroke-dashoffset: 0;}100%{ stroke-dashoffset: 0;}}@keyframes jjgaVVfC_draw_57{22.92703150912106%{stroke-dashoffset: 203}50.70480928689884%{ stroke-dashoffset: 0;}100%{ stroke-dashoffset: 0;}}@keyframes jjgaVVfC_draw_58{23.134328358208954%{stroke-dashoffset: 27}50.91210613598673%{ stroke-dashoffset: 0;}100%{ stroke-dashoffset: 0;}}@keyframes jjgaVVfC_draw_59{23.341625207296847%{stroke-dashoffset: 168}51.11940298507462%{ stroke-dashoffset: 0;}100%{ stroke-dashoffset: 0;}}@keyframes jjgaVVfC_draw_60{23.54892205638474%{stroke-dashoffset: 64}51.32669983416251%{ stroke-dashoffset: 0;}100%{ stroke-dashoffset: 0;}}@keyframes jjgaVVfC_draw_61{23.756218905472636%{stroke-dashoffset: 28}51.533996683250415%{ stroke-dashoffset: 0;}100%{ stroke-dashoffset: 0;}}@keyframes jjgaVVfC_draw_62{23.96351575456053%{stroke-dashoffset: 74}51.741293532338304%{ stroke-dashoffset: 0;}100%{ stroke-dashoffset: 0;}}@keyframes jjgaVVfC_draw_63{24.17081260364843%{stroke-dashoffset: 298}51.94859038142621%{ stroke-dashoffset: 0;}100%{ stroke-dashoffset: 0;}}@keyframes jjgaVVfC_draw_64{24.37810945273632%{stroke-dashoffset: 85}52.1558872305141%{ stroke-dashoffset: 0;}100%{ stroke-dashoffset: 0;}}@keyframes jjgaVVfC_draw_65{24.585406301824214%{stroke-dashoffset: 234}52.363184079601986%{ stroke-dashoffset: 0;}100%{ stroke-dashoffset: 0;}}@keyframes jjgaVVfC_draw_66{24.792703150912107%{stroke-dashoffset: 92}52.57048092868989%{ stroke-dashoffset: 0;}100%{ stroke-dashoffset: 0;}}@keyframes jjgaVVfC_draw_67{25%{stroke-dashoffset: 198}52.77777777777778%{ stroke-dashoffset: 0;}100%{ stroke-dashoffset: 0;}}</style></svg>